<?xml version="1.0" standalone="no"?>
<!DOCTYPE svg PUBLIC "-//W3C//DTD SVG 20010904//EN"
 "http://www.w3.org/TR/2001/REC-SVG-20010904/DTD/svg10.dtd">
<svg version="1.0" xmlns="http://www.w3.org/2000/svg"
 width="512.000000pt" height="512.000000pt" viewBox="0 0 512.000000 512.000000"
 preserveAspectRatio="xMidYMid meet">
<metadata>
Created by potrace 1.14, written by Peter Selinger 2001-2017
</metadata>
<g transform="translate(0.000000,512.000000) scale(0.100000,-0.100000)"
fill="#000000" stroke="none">
<path d="M2438 4944 c-15 -8 -30 -25 -34 -38 -3 -13 8 -78 24 -145 l29 -121
-421 -3 c-232 -1 -431 -5 -443 -9 -85 -25 -163 -93 -203 -173 l-25 -50 -3
-682 -3 -683 41 0 40 0 0 -80 0 -80 -581 -2 -580 -3 -19 -25 c-19 -24 -20 -58
-20 -1323 0 -1405 -2 -1346 52 -1361 13 -3 678 -6 1478 -6 1419 0 1456 1 1480
20 l25 19 3 300 3 301 79 0 80 0 0 -40 0 -40 260 0 c238 0 265 2 325 21 89 30
166 105 194 193 19 57 21 88 21 444 l0 382 -40 0 -40 0 0 88 0 87 103 29 c111
32 156 51 173 74 11 15 11 125 0 260 -2 28 -3 52 -2 52 14 0 271 82 294 94 41
21 100 92 112 135 45 161 -65 311 -228 313 -20 0 -68 -9 -107 -20 -72 -21
-289 -85 -325 -97 -19 -6 -20 -3 -20 89 l0 96 40 0 41 0 -3 723 c-2 515 -6
728 -14 742 -7 11 -18 33 -25 50 -31 67 -138 146 -215 159 -16 2 -212 5 -435
5 l-406 1 29 118 c32 130 30 168 -12 189 -39 20 -685 17 -722 -3z m1843 -2701
c0 -32 2 -68 3 -80 3 -23 3 -23 -111 -58 -10 -3 -13 17 -13 79 l0 82 48 16
c72 24 72 25 73 -39z"/>
</g>
</svg>
